<?xml version="1.0" encoding="utf-8"?>
<!-- Generator: Adobe Illustrator 19.2.1, SVG Export Plug-In . SVG Version: 6.00 Build 0)  -->
<svg version="1.1" xmlns="http://www.w3.org/2000/svg" xmlns:xlink="http://www.w3.org/1999/xlink" x="0px" y="0px"
	 viewBox="0 0 652.5 653.7" style="enable-background:new 0 0 652.5 653.7;" xml:space="preserve">
<style type="text/css">
	.st0{fill:#912C87;}
	.st1{fill:#A5DBF6;}
	.st2{fill:#82CEEA;}
	.st3{clip-path:url(#SVGID_2_);fill:#CFEAF1;}
	.st4{fill:#ECF7F9;}
	.st5{fill:#9FD8EE;}
	.st6{fill:#0A0C0C;}
	.st7{fill:#111111;}
	.st8{fill:none;}
	.st9{fill:#FFFFFF;}
</style>
<g id="Layer_4">
	<circle class="st0" cx="327.5" cy="324.2" r="313.5"/>
</g>
<g id="Layer_3">
	<rect id="XMLID_67_" x="168.7" y="284.9" class="st1" width="325.2" height="61.6"/>
	<polygon id="XMLID_66_" class="st2" points="188,537.8 321.6,251.7 455.3,537.8 	"/>
	<circle id="XMLID_65_" class="st1" cx="324.1" cy="323.3" r="282"/>
	<polygon id="XMLID_64_" class="st2" points="126.5,491.9 260.2,205.8 393.9,491.9 	"/>
	<polygon id="XMLID_63_" class="st2" points="268,491.9 401.7,205.8 535.4,491.9 	"/>
	<g>
		<defs>
			<circle id="SVGID_1_" cx="328.8" cy="323.3" r="288.2"/>
		</defs>
		<clipPath id="SVGID_2_">
			<use xlink:href="#SVGID_1_"  style="overflow:visible;"/>
		</clipPath>
		<rect id="XMLID_62_" x="80.6" y="79.4" class="st3" width="492.1" height="205.5"/>
	</g>
	<rect id="XMLID_61_" x="157.4" y="473.4" class="st2" width="342.8" height="87.2"/>
	<polygon id="XMLID_60_" class="st4" points="261.8,284.9 312.5,132.3 363.1,284.9 	"/>
	<polygon id="XMLID_59_" class="st4" points="306.7,194.7 311.5,131.3 374,142.6 	"/>
	<polygon id="XMLID_58_" class="st4" points="297.7,227.3 341,152.3 384.3,227.3 	"/>
	<polygon id="XMLID_57_" class="st4" points="309.3,284.9 374,142.6 438.8,284.9 	"/>
	<polygon id="XMLID_56_" class="st4" points="222.8,284.9 273.5,158.4 324.1,284.9 	"/>
	<polygon id="XMLID_55_" class="st4" points="308.6,192.1 373.9,142.4 362,223.5 	"/>
	<polygon id="XMLID_54_" class="st4" points="273.5,158.4 331.3,167.5 295.5,213.8 	"/>
	<rect id="XMLID_53_" x="273.5" y="183" class="st4" width="43.7" height="24.9"/>
	<polygon id="XMLID_52_" class="st5" points="291.5,155.2 299.4,251.7 273.5,158.5 	"/>
	<polygon id="XMLID_51_" class="st5" points="369.5,162.7 317.1,136.4 374.3,149.5 	"/>
	<polygon id="XMLID_50_" class="st5" points="374.5,149.9 393.9,244.5 360.8,153.7 	"/>
	<polygon id="XMLID_49_" class="st4" points="291.2,155.2 326.4,168.6 296,190.8 	"/>
	<polygon id="XMLID_48_" class="st4" points="331.4,161.3 294.6,164.2 311.4,131.3 	"/>
	<polygon id="XMLID_47_" class="st5" points="431.5,292.7 410.3,221 440.8,289.3 	"/>
	<polygon id="XMLID_46_" class="st5" points="357.7,295.9 347.6,196.9 363.3,295.2 	"/>
	<polygon id="XMLID_45_" class="st5" points="296.6,157.3 311.3,131.3 303.2,160.1 	"/>
	<rect id="XMLID_44_" x="215.5" y="314.3" class="st2" width="231.7" height="87.2"/>
	<rect id="XMLID_43_" x="222.8" y="284.9" class="st2" width="216" height="87.2"/>
	<polygon id="XMLID_42_" class="st2" points="398.4,374.6 438.8,284.9 479.2,374.6 	"/>
</g>
<g id="Layer_5">
	<g id="XMLID_1324_">
		<g id="XMLID_1328_">
			<path class="st6" d="M328.4,614.9c-77.8,0-150.9-30.3-205.9-85.3c-55-55-85.3-128.1-85.3-205.9c0-77.8,30.3-150.9,85.3-205.9
				c55-55,128.1-85.3,205.9-85.3c77.8,0,150.9,30.3,205.9,85.3c55,55,85.3,128.1,85.3,205.9s-30.3,150.9-85.3,205.9
				C479.3,584.6,406.1,614.9,328.4,614.9z M328.4,82.8c-64.4,0-124.9,25.1-170.4,70.6c-45.5,45.5-70.6,106-70.6,170.4
				s25.1,124.9,70.6,170.4c45.5,45.5,106,70.6,170.4,70.6s124.9-25.1,170.4-70.6s70.6-106,70.6-170.4c0-64.4-25.1-124.9-70.6-170.4
				C453.2,107.9,392.7,82.8,328.4,82.8z"/>
			<path class="st7" d="M328.4,35.6c77,0,149.3,30,203.8,84.4c54.4,54.4,84.4,126.8,84.4,203.8c0,77-30,149.3-84.4,203.8
				c-54.4,54.4-126.8,84.4-203.8,84.4s-149.3-30-203.8-84.4c-54.4-54.4-84.4-126.8-84.4-203.8c0-77,30-149.3,84.4-203.8
				C179,65.5,251.4,35.6,328.4,35.6 M328.4,567.7c65.2,0,126.4-25.4,172.5-71.4c46.1-46.1,71.4-107.3,71.4-172.5
				c0-65.2-25.4-126.4-71.4-172.5c-46.1-46.1-107.3-71.4-172.5-71.4c-65.2,0-126.4,25.4-172.5,71.4
				c-46.1,46.1-71.4,107.3-71.4,172.5c0,65.2,25.4,126.4,71.4,172.5C202,542.3,263.2,567.7,328.4,567.7 M328.4,29.6
				c-78.6,0-152.5,30.6-208,86.2c-55.6,55.6-86.2,129.4-86.2,208c0,78.6,30.6,152.5,86.2,208c55.6,55.6,129.4,86.2,208,86.2
				c78.6,0,152.5-30.6,208-86.2c55.6-55.6,86.2-129.4,86.2-208c0-78.6-30.6-152.5-86.2-208C480.8,60.2,406.9,29.6,328.4,29.6
				L328.4,29.6z M328.4,561.7c-63.5,0-123.3-24.7-168.2-69.7C115.2,447,90.5,387.3,90.5,323.7c0-63.5,24.7-123.3,69.7-168.2
				c44.9-44.9,104.7-69.7,168.2-69.7c63.6,0,123.3,24.7,168.2,69.7c44.9,44.9,69.7,104.7,69.7,168.2c0,63.5-24.7,123.3-69.7,168.2
				C451.7,536.9,391.9,561.7,328.4,561.7L328.4,561.7z"/>
		</g>
	</g>
	<path id="XMLID_x5F_2_x5F_" class="st8" d="M581.8,324c0.1,140.2-113.5,254-253.7,254S74.1,464.6,74,324.4s113.5-254,253.7-254
		S581.7,183.8,581.8,324z"/>
	<text id="XMLID_1322_">	<textPath  xlink:href="#XMLID_x5F_2_x5F_" startOffset="100%">
	</textPath>
</text>
	<g>
		<path class="st9" d="M53.5,273.5l23.5-9.2l0-0.1l-20.7-4.3l0.7-3.2l25.6,5.3l-0.8,3.7l-23.3,9.1l0,0.1l20.5,4.2l-0.7,3.2
			l-25.6-5.3L53.5,273.5z"/>
		<path class="st9" d="M88.6,241.5c0.1,0.6,0.1,1.4-0.2,2.3c-0.2,0.8-0.6,1.3-1.2,1.6c-0.6,0.3-1.3,0.3-2.3,0
			c0.7,1.1,1.2,2.3,1.3,3.5c0.1,1.2,0,2.5-0.4,3.7c-0.2,0.8-0.6,1.6-1,2.2c-0.4,0.7-0.9,1.2-1.5,1.6c-0.6,0.4-1.2,0.7-1.9,0.8
			c-0.7,0.1-1.6,0-2.5-0.2c-1-0.3-1.8-0.7-2.4-1.3c-0.5-0.5-0.9-1.2-1.2-1.9c-0.2-0.7-0.3-1.4-0.3-2.2c0-0.8,0.1-1.6,0.2-2.4
			c0.1-0.9,0.2-1.7,0.3-2.4s0.2-1.4,0.2-2c0-0.6-0.1-1.1-0.3-1.5s-0.6-0.7-1.1-0.9c-0.7-0.2-1.2-0.2-1.7-0.1
			c-0.5,0.1-0.9,0.4-1.2,0.7c-0.3,0.3-0.6,0.7-0.8,1.2c-0.2,0.5-0.4,0.9-0.5,1.4c-0.4,1.3-0.5,2.4-0.2,3.4c0.2,1,1,1.7,2.3,2.2
			l-0.9,3c-1.1-0.4-2-0.9-2.6-1.6c-0.6-0.7-1.1-1.4-1.4-2.2c-0.3-0.8-0.4-1.7-0.3-2.7c0.1-1,0.2-2,0.6-3c0.2-0.8,0.5-1.6,0.9-2.4
			c0.4-0.8,0.8-1.4,1.4-2c0.6-0.5,1.2-0.9,2-1.1c0.8-0.2,1.7-0.1,2.7,0.2l9.3,2.8c0.7,0.2,1.2,0.3,1.6,0.3c0.4,0,0.6-0.2,0.7-0.7
			c0.1-0.3,0.1-0.6,0.1-1L88.6,241.5z M77.8,243.6c0.2,0.5,0.2,1,0.2,1.7c-0.1,0.6-0.1,1.3-0.3,2c-0.1,0.7-0.2,1.4-0.3,2.1
			c-0.1,0.7-0.1,1.4,0,2c0.1,0.6,0.3,1.1,0.6,1.6c0.3,0.5,0.9,0.8,1.6,1c0.5,0.1,0.9,0.2,1.3,0.1s0.7-0.3,1.1-0.5
			c0.3-0.3,0.6-0.6,0.8-1c0.2-0.4,0.4-0.8,0.5-1.3c0.3-1,0.4-1.9,0.4-2.6c-0.1-0.8-0.2-1.5-0.5-2c-0.3-0.6-0.6-1-1-1.4
			c-0.4-0.4-0.8-0.6-1.2-0.7L77.8,243.6z"/>
		<path class="st9" d="M91.4,234.4l-20.2-0.2l1.2-3.2l16.6,0.7l0-0.1l-12.9-10.5l1.2-3l15.2,13.2L91.4,234.4z"/>
		<path class="st9" d="M75.8,213.4l-3.5-1.5l1.3-2.8l3.5,1.5L75.8,213.4z M80.2,211.9l17.3,7.7l-1.3,2.8l-17.3-7.7L80.2,211.9z"/>
		<path class="st9" d="M110.5,205.3c0.7,2,0.4,4.3-1,7c-0.4,0.8-0.9,1.5-1.5,2.3c-0.6,0.7-1.3,1.3-2,1.8c-0.7,0.5-1.5,0.7-2.4,0.9
			c-0.9,0.1-1.7,0-2.7-0.5l1.4-2.8c0.5,0.2,1,0.3,1.5,0.2c0.5-0.1,1-0.3,1.4-0.6c0.4-0.3,0.8-0.7,1.2-1.1s0.6-0.9,0.9-1.4
			c0.5-0.9,0.7-1.8,0.7-2.6c0-0.8-0.2-1.5-0.5-2.2c-0.3-0.7-0.9-1.3-1.5-1.9c-0.7-0.6-1.5-1.1-2.4-1.6l-1.1-0.6l0,0.1
			c0.8,1,1.2,2.1,1.2,3.3c0,1.2-0.3,2.4-0.8,3.5c-0.6,1.3-1.4,2.2-2.4,2.9c-0.9,0.7-1.9,1.2-3,1.4c-1.1,0.2-2.2,0.2-3.4,0
			c-1.2-0.2-2.4-0.6-3.5-1.2c-1-0.5-2-1.2-2.9-2c-0.9-0.8-1.7-1.7-2.2-2.8c-0.5-1-0.8-2.2-0.9-3.5c0-1.3,0.3-2.6,1.1-4.1
			c0.5-1.1,1.3-1.9,2.2-2.6c0.9-0.7,2-1,3.2-1l0,0l-2.4-1.2l1.3-2.6l15.4,7.9C108,201.6,109.8,203.3,110.5,205.3z M101.1,204.9
			c-0.1-0.8-0.3-1.6-0.7-2.3s-1-1.4-1.7-1.9c-0.7-0.6-1.4-1.1-2.2-1.5c-0.7-0.4-1.5-0.7-2.3-0.9c-0.8-0.2-1.6-0.2-2.4-0.2
			s-1.5,0.3-2.1,0.8c-0.7,0.4-1.2,1.1-1.7,1.9c-0.5,0.9-0.7,1.7-0.7,2.5c0,0.8,0.2,1.5,0.6,2.2c0.4,0.7,0.9,1.3,1.5,1.9
			c0.6,0.6,1.4,1,2.2,1.5c0.8,0.4,1.6,0.7,2.4,0.9c0.8,0.2,1.7,0.3,2.5,0.3c0.8-0.1,1.6-0.3,2.2-0.7c0.7-0.4,1.3-1.1,1.7-2
			C100.9,206.6,101.1,205.7,101.1,204.9z"/>
		<path class="st9" d="M117.5,183c0,0.6-0.3,1.3-0.8,2.1c-0.4,0.7-1,1.1-1.6,1.3c-0.6,0.2-1.4,0-2.3-0.6c0.4,1.3,0.5,2.5,0.3,3.7
			c-0.2,1.2-0.7,2.4-1.4,3.5c-0.4,0.7-1,1.4-1.5,1.9s-1.2,1-1.8,1.2c-0.6,0.3-1.3,0.4-2.1,0.3c-0.7-0.1-1.5-0.4-2.3-0.9
			c-0.9-0.6-1.6-1.2-2-1.8c-0.4-0.7-0.6-1.4-0.7-2.1c0-0.7,0-1.5,0.2-2.3c0.2-0.8,0.5-1.5,0.8-2.3c0.3-0.8,0.6-1.6,0.9-2.3
			c0.3-0.7,0.6-1.3,0.8-1.9c0.2-0.6,0.2-1.1,0.1-1.5c-0.1-0.5-0.4-0.8-0.9-1.1c-0.6-0.4-1.1-0.5-1.6-0.5c-0.5,0-0.9,0.1-1.3,0.3
			c-0.4,0.2-0.8,0.5-1.1,0.9c-0.3,0.4-0.6,0.8-0.9,1.2c-0.7,1.1-1.1,2.2-1.1,3.2c0,1,0.5,1.9,1.7,2.7l-1.6,2.6
			c-1-0.7-1.7-1.4-2.1-2.2c-0.5-0.8-0.7-1.6-0.7-2.5c0-0.9,0.1-1.8,0.4-2.7c0.3-0.9,0.7-1.8,1.3-2.7c0.4-0.7,0.9-1.4,1.5-2.1
			c0.5-0.7,1.2-1.2,1.8-1.6c0.7-0.4,1.4-0.6,2.2-0.6s1.7,0.3,2.6,0.9l8.3,5.1c0.6,0.4,1.1,0.6,1.4,0.7c0.3,0.1,0.6,0,0.9-0.5
			c0.1-0.2,0.3-0.5,0.4-0.9L117.5,183z M106.6,182.2c0,0.5,0,1-0.3,1.6c-0.2,0.6-0.5,1.2-0.8,1.9c-0.3,0.6-0.6,1.3-0.9,1.9
			c-0.3,0.7-0.5,1.3-0.5,1.9c-0.1,0.6,0,1.2,0.2,1.7c0.2,0.5,0.6,1,1.3,1.4c0.4,0.3,0.9,0.4,1.3,0.4c0.4,0,0.8-0.1,1.1-0.2
			c0.4-0.2,0.7-0.4,1-0.7c0.3-0.3,0.6-0.7,0.9-1.1c0.5-0.9,0.9-1.7,1-2.5c0.1-0.8,0.2-1.5,0-2.1c-0.1-0.6-0.3-1.1-0.6-1.6
			c-0.3-0.4-0.6-0.8-1-1L106.6,182.2z"/>
		<path class="st9" d="M108.3,163.5l2.2,1.6l-2.2,3.1l9.6,6.8c0.3,0.2,0.6,0.4,0.8,0.4c0.2,0.1,0.4,0.1,0.6,0s0.4-0.2,0.6-0.4
			c0.2-0.2,0.4-0.5,0.7-0.9l0.8-1.2l2.2,1.6l-1.4,1.9c-0.5,0.7-0.9,1.2-1.3,1.6c-0.4,0.4-0.9,0.7-1.3,0.8c-0.4,0.1-0.9,0.1-1.5-0.1
			c-0.5-0.2-1.2-0.5-1.9-1l-9.8-6.9l-1.9,2.6l-2.2-1.6l1.9-2.6l-4.6-3.3l1.8-2.5l4.6,3.3L108.3,163.5z"/>
		<path class="st9" d="M108,158.2l-3-2.3l1.9-2.5l3,2.3L108,158.2z M112.6,157.8l15,11.5l-1.9,2.5l-15-11.5L112.6,157.8z"/>
		<path class="st9" d="M117.8,151.2l2.3,1.9l0-0.1c-0.9-2.5-0.5-4.8,1.4-6.9c0.8-0.9,1.6-1.6,2.4-2c0.8-0.4,1.6-0.6,2.4-0.6
			c0.8,0,1.6,0.2,2.4,0.6c0.8,0.4,1.6,0.9,2.3,1.6l9.5,8.1l-2,2.4l-9.7-8.3c-0.9-0.8-1.8-1.1-2.8-1c-1,0.1-1.8,0.6-2.6,1.5
			c-0.6,0.7-1,1.4-1.3,2.2c-0.2,0.7-0.3,1.4-0.2,2.1c0.1,0.7,0.4,1.4,0.8,2s0.9,1.2,1.6,1.8l8.1,6.9l-2,2.4l-14.4-12.3L117.8,151.2z
			"/>
		<path class="st9" d="M157.1,144.4c0.1,2.1-0.9,4.2-3.1,6.3c-0.6,0.6-1.3,1.2-2.1,1.7c-0.8,0.5-1.6,0.9-2.4,1.1
			c-0.8,0.2-1.7,0.2-2.5,0.1c-0.8-0.2-1.6-0.6-2.4-1.3l2.2-2.2c0.4,0.4,0.9,0.6,1.4,0.6c0.5,0,1,0,1.5-0.2c0.5-0.2,1-0.4,1.5-0.7
			c0.5-0.3,0.9-0.7,1.3-1c0.7-0.7,1.2-1.5,1.5-2.2c0.2-0.7,0.3-1.5,0.2-2.3c-0.1-0.8-0.4-1.5-0.9-2.3c-0.5-0.8-1.1-1.5-1.8-2.3
			l-0.9-0.9l-0.1,0.1c0.4,1.2,0.5,2.4,0.1,3.5c-0.4,1.2-1,2.2-1.9,3c-1,1-2.1,1.7-3.2,2.1s-2.2,0.5-3.3,0.4c-1.1-0.1-2.2-0.5-3.3-1
			c-1.1-0.6-2.1-1.3-3-2.2c-0.8-0.8-1.5-1.7-2.1-2.8c-0.6-1-1-2.1-1.2-3.3c-0.2-1.2-0.1-2.4,0.2-3.6c0.4-1.2,1.1-2.4,2.3-3.6
			c0.8-0.8,1.8-1.4,2.9-1.8c1.1-0.3,2.2-0.3,3.3,0l0,0l-1.9-1.9l2.1-2.1l12.2,12.2C155.9,140.2,157.1,142.3,157.1,144.4z
			 M148.3,141.2c0.2-0.8,0.2-1.6,0-2.4c-0.2-0.8-0.5-1.6-1-2.4c-0.5-0.8-1-1.5-1.6-2.1c-0.6-0.6-1.2-1.1-1.9-1.5s-1.4-0.7-2.2-0.9
			c-0.8-0.2-1.5-0.1-2.3,0.1c-0.8,0.2-1.5,0.7-2.2,1.3c-0.7,0.7-1.2,1.4-1.4,2.2c-0.2,0.8-0.3,1.5-0.2,2.3s0.4,1.5,0.9,2.2
			c0.4,0.7,1,1.4,1.6,2.1c0.6,0.6,1.3,1.1,2,1.6c0.7,0.5,1.5,0.8,2.3,1c0.8,0.2,1.6,0.2,2.4,0s1.5-0.6,2.3-1.4
			C147.7,142.8,148.1,142,148.3,141.2z"/>
		<path class="st9" d="M159.9,110l1.7,2.1l-2.9,2.4l7.4,9.1c0.2,0.3,0.4,0.5,0.6,0.6c0.2,0.1,0.4,0.2,0.6,0.2c0.2,0,0.4-0.1,0.7-0.3
			c0.3-0.2,0.6-0.4,1-0.7l1.1-0.9l1.7,2.1l-1.8,1.5c-0.6,0.5-1.2,0.9-1.7,1.2c-0.5,0.3-1,0.4-1.5,0.4c-0.5,0-0.9-0.2-1.4-0.5
			s-1-0.8-1.5-1.5l-7.6-9.3l-2.5,2l-1.7-2.1l2.5-2l-3.6-4.4l2.4-2l3.6,4.4L159.9,110z"/>
		<path class="st9" d="M161.5,99.7l5.8,8.1l0.1,0c-0.1-0.6-0.2-1.2,0-1.8c0.1-0.6,0.3-1.1,0.6-1.7c0.3-0.5,0.7-1,1.1-1.5
			s0.8-0.8,1.3-1.2c1-0.7,2-1.2,2.8-1.4c0.9-0.2,1.7-0.2,2.5,0c0.8,0.2,1.5,0.6,2.1,1.1c0.7,0.6,1.3,1.3,1.9,2.1l7.3,10.1l-2.5,1.8
			l-7.5-10.4c-0.7-0.9-1.5-1.5-2.5-1.7c-1-0.2-1.9,0.1-2.9,0.8c-0.8,0.6-1.4,1.2-1.7,1.8c-0.4,0.6-0.6,1.3-0.7,2
			c-0.1,0.7,0,1.4,0.3,2.1c0.2,0.7,0.6,1.4,1.1,2.1l6.2,8.7l-2.5,1.8L159,101.5L161.5,99.7z"/>
		<path class="st9" d="M201.2,103.3c-0.6,1.7-1.9,3-3.7,4.1c-1.3,0.8-2.5,1.3-3.7,1.4c-1.2,0.2-2.4,0.1-3.5-0.3
			c-1.1-0.4-2.1-1-3.1-1.8c-1-0.8-1.8-1.9-2.6-3.1c-0.7-1.2-1.2-2.5-1.5-3.7c-0.2-1.2-0.3-2.5,0-3.6c0.2-1.2,0.7-2.2,1.3-3.2
			c0.7-1,1.6-1.8,2.7-2.5c1.4-0.9,2.8-1.3,4.1-1.3c1.3,0,2.5,0.3,3.7,0.9c1.1,0.6,2.1,1.3,3,2.3c0.9,1,1.6,1.9,2.1,2.9l-12.1,7.4
			c0.4,0.7,0.9,1.3,1.5,1.9c0.6,0.5,1.2,0.9,1.9,1.1c0.7,0.2,1.5,0.3,2.3,0.2c0.8-0.1,1.7-0.4,2.5-1c1.1-0.7,1.9-1.5,2.3-2.5
			c0.4-1,0.4-2,0-3.2l2.6-1.6C201.8,99.8,201.9,101.6,201.2,103.3z M194.3,93.3c-0.6-0.4-1.2-0.7-1.9-0.9c-0.7-0.2-1.3-0.2-2-0.1
			c-0.7,0.1-1.4,0.3-2,0.8c-0.7,0.4-1.2,0.9-1.6,1.5c-0.4,0.6-0.7,1.2-0.8,1.8c-0.1,0.7-0.2,1.3-0.1,2c0.1,0.7,0.3,1.4,0.7,2
			l9.3-5.6C195.4,94.2,194.9,93.7,194.3,93.3z"/>
		<path class="st9" d="M206.2,76.7l-1.7-3.4l2.8-1.4l1.7,3.4L206.2,76.7z M210.5,78.4l8.3,17l-2.8,1.4l-8.3-17L210.5,78.4z"/>
		<path class="st9" d="M227.1,74.6c-1-0.3-2.1-0.2-3.3,0.3c-1,0.4-1.8,1-2.3,1.7c-0.5,0.7-0.9,1.4-1,2.2c-0.1,0.8-0.1,1.7,0,2.5
			c0.2,0.9,0.4,1.8,0.8,2.7c0.3,0.8,0.8,1.6,1.3,2.2c0.5,0.7,1.1,1.2,1.8,1.7c0.7,0.4,1.4,0.7,2.2,0.8c0.8,0.1,1.7-0.1,2.6-0.4
			c1.4-0.6,2.4-1.4,2.8-2.5c0.5-1.1,0.5-2.3,0.1-3.8l2.9-1.2c0.6,2.3,0.5,4.3-0.3,6c-0.8,1.7-2.3,3-4.5,4c-1.3,0.6-2.6,0.8-3.8,0.9
			c-1.2,0-2.3-0.2-3.3-0.7c-1-0.5-1.9-1.2-2.7-2.2c-0.8-0.9-1.5-2.1-2-3.4c-0.6-1.3-0.9-2.6-1-3.9c-0.1-1.3-0.1-2.5,0.3-3.6
			c0.3-1.1,0.9-2.2,1.7-3.1c0.8-0.9,1.9-1.7,3.3-2.3c1-0.4,2-0.7,2.9-0.8s1.9-0.1,2.8,0.1s1.7,0.6,2.4,1.2c0.7,0.6,1.4,1.3,1.9,2.3
			l-3,1.3C228.9,75.6,228.1,74.9,227.1,74.6z"/>
		<path class="st9" d="M252.8,80.7c-1,1.5-2.5,2.5-4.5,3.2c-1.4,0.5-2.8,0.7-4,0.6c-1.2-0.1-2.3-0.5-3.3-1c-1-0.6-1.9-1.4-2.6-2.4
			c-0.7-1-1.4-2.2-1.9-3.6c-0.5-1.4-0.7-2.7-0.6-4c0-1.3,0.3-2.5,0.8-3.5c0.5-1.1,1.1-2,2-2.8c0.9-0.8,1.9-1.4,3.1-1.8
			c1.6-0.5,3-0.7,4.3-0.4s2.4,0.9,3.4,1.7c1,0.8,1.8,1.8,2.4,2.9c0.6,1.1,1.1,2.2,1.5,3.3L240,77.3c0.2,0.8,0.6,1.5,1,2.1
			c0.4,0.6,1,1.1,1.6,1.5c0.6,0.4,1.4,0.6,2.2,0.7c0.8,0.1,1.7,0,2.7-0.4c1.2-0.4,2.2-1.1,2.8-1.9c0.6-0.8,0.8-1.9,0.7-3.2l2.9-1
			C254.2,77.4,253.8,79.2,252.8,80.7z M248.2,69.4c-0.5-0.5-1-1-1.6-1.2c-0.6-0.3-1.3-0.5-2-0.5c-0.7-0.1-1.4,0-2.2,0.3
			c-0.8,0.3-1.4,0.6-1.9,1.1c-0.5,0.5-0.9,1-1.2,1.6c-0.3,0.6-0.4,1.3-0.5,2c0,0.7,0,1.4,0.2,2.1l10.3-3.5
			C249.1,70.5,248.7,69.9,248.2,69.4z"/>
		<path class="st9" d="M255.5,54l2.4,9.5l0.1,0c0.2-1.1,0.8-2.1,1.8-2.8c0.9-0.7,2.1-1.3,3.3-1.6c1.4-0.4,2.7-0.4,3.9-0.1
			c1.2,0.3,2.2,0.7,3.2,1.5c0.9,0.7,1.7,1.6,2.3,2.7c0.6,1.1,1.1,2.3,1.5,3.6s0.5,2.6,0.4,3.8c-0.1,1.2-0.3,2.4-0.8,3.4
			c-0.5,1-1.2,1.9-2.1,2.7c-0.9,0.8-2.1,1.3-3.5,1.7c-0.4,0.1-1,0.2-1.5,0.2c-0.6,0-1.2,0-1.8,0c-0.6-0.1-1.2-0.2-1.8-0.5
			c-0.6-0.2-1.1-0.6-1.6-1.1l-0.1,0l0.6,2.4l-3,0.8l-6.3-25.3L255.5,54z M269.7,64.8c-0.4-0.8-1-1.4-1.6-1.9s-1.3-0.9-2.2-1.1
			c-0.8-0.2-1.7-0.2-2.7,0.1c-1,0.3-1.8,0.7-2.4,1.3c-0.6,0.6-1.1,1.3-1.3,2c-0.3,0.8-0.4,1.6-0.4,2.5c0,0.9,0.1,1.7,0.3,2.6
			c0.2,0.9,0.5,1.7,1,2.5c0.4,0.8,0.9,1.4,1.6,2c0.6,0.5,1.3,0.9,2.2,1.1c0.8,0.2,1.8,0.2,2.8-0.1c1-0.3,1.9-0.7,2.5-1.3
			c0.6-0.6,1-1.2,1.3-2c0.3-0.8,0.4-1.6,0.4-2.5c0-0.9-0.1-1.8-0.4-2.7C270.4,66.3,270.1,65.5,269.7,64.8z"/>
		<path class="st9" d="M292.3,71.7c-1.2,1.3-2.9,2.1-5,2.5c-1.5,0.2-2.8,0.2-4-0.1c-1.2-0.3-2.2-0.8-3.1-1.6
			c-0.9-0.7-1.6-1.7-2.2-2.8c-0.6-1.1-1-2.4-1.3-3.8c-0.2-1.4-0.2-2.8,0-4c0.2-1.2,0.7-2.4,1.3-3.4c0.6-1,1.5-1.8,2.4-2.5
			c1-0.7,2.1-1.1,3.4-1.3c1.7-0.3,3.1-0.2,4.3,0.3c1.2,0.5,2.2,1.2,3.1,2.2c0.8,0.9,1.5,2,1.9,3.2c0.5,1.2,0.8,2.4,0.9,3.5l-14,2.3
			c0.1,0.8,0.3,1.6,0.7,2.3c0.3,0.7,0.8,1.3,1.4,1.8c0.6,0.5,1.3,0.8,2.1,1c0.8,0.2,1.7,0.2,2.7,0.1c1.3-0.2,2.3-0.7,3-1.4
			c0.7-0.7,1.1-1.7,1.2-3l3-0.5C294.2,68.7,293.5,70.4,292.3,71.7z M289.6,59.9c-0.4-0.6-0.9-1.1-1.4-1.5c-0.5-0.4-1.2-0.7-1.8-0.8
			c-0.7-0.2-1.4-0.2-2.2-0.1c-0.8,0.1-1.5,0.4-2.1,0.8c-0.6,0.4-1.1,0.9-1.5,1.4c-0.4,0.6-0.6,1.2-0.8,1.9c-0.2,0.7-0.2,1.4-0.1,2.1
			l10.7-1.8C290.2,61.2,290,60.5,289.6,59.9z"/>
		<path class="st9" d="M299.2,53.1l0.4,4l0.1,0c0.6-1.6,1.4-2.8,2.4-3.7c1-0.8,2.4-1.3,4-1.4l0.3,3.3c-1.2,0.1-2.3,0.4-3.1,0.8
			c-0.8,0.4-1.5,1-2,1.7c-0.5,0.7-0.8,1.5-0.9,2.5c-0.1,1-0.2,2,0,3.3l0.9,8.4l-3.1,0.3l-1.9-18.8L299.2,53.1z"/>
		<path class="st9" d="M323.5,75.8c-1.3,1.6-3.5,2.5-6.5,2.6c-0.9,0-1.8,0-2.7-0.2c-0.9-0.2-1.8-0.4-2.5-0.8c-0.8-0.4-1.4-1-1.9-1.6
			c-0.5-0.7-0.8-1.5-0.9-2.6L312,73c0,0.6,0.2,1,0.6,1.4c0.3,0.4,0.8,0.7,1.2,0.9s1,0.4,1.6,0.5c0.6,0.1,1.1,0.1,1.6,0.1
			c1,0,1.9-0.3,2.6-0.6c0.7-0.4,1.3-0.9,1.7-1.5s0.7-1.4,0.9-2.3c0.2-0.9,0.2-1.9,0.2-2.9l-0.1-1.2l-0.1,0c-0.5,1.2-1.3,2.1-2.3,2.7
			c-1.1,0.6-2.2,0.9-3.4,1c-1.4,0.1-2.7-0.1-3.7-0.6c-1.1-0.5-2-1.1-2.7-2c-0.7-0.8-1.3-1.8-1.7-3c-0.4-1.1-0.6-2.4-0.7-3.6
			c0-1.1,0-2.3,0.3-3.5c0.2-1.2,0.7-2.3,1.3-3.3c0.6-1,1.5-1.8,2.6-2.5c1.1-0.7,2.5-1,4.1-1.1c1.2-0.1,2.3,0.2,3.3,0.6
			c1,0.5,1.8,1.2,2.4,2.3l0,0l-0.1-2.7l2.9-0.1l0.7,17.3C325.4,71.8,324.8,74.2,323.5,75.8z M319.2,67.5c0.7-0.5,1.3-1,1.7-1.8
			c0.4-0.7,0.7-1.5,0.9-2.4c0.2-0.9,0.2-1.8,0.2-2.6c0-0.8-0.2-1.6-0.4-2.4s-0.6-1.5-1-2.1c-0.5-0.6-1-1.1-1.7-1.5s-1.5-0.5-2.5-0.5
			c-1,0-1.8,0.3-2.5,0.7c-0.7,0.4-1.2,0.9-1.7,1.6c-0.4,0.7-0.7,1.4-0.9,2.2c-0.2,0.8-0.2,1.7-0.2,2.6c0,0.9,0.2,1.7,0.4,2.5
			c0.2,0.8,0.5,1.6,1,2.3c0.4,0.7,1,1.2,1.7,1.6c0.7,0.4,1.6,0.6,2.6,0.5S318.5,67.9,319.2,67.5z"/>
		<path class="st9" d="M332.1,66.2c0.3,0.5,0.6,0.9,1.1,1.2c0.5,0.3,1,0.5,1.6,0.7c0.6,0.1,1.2,0.2,1.8,0.2c0.5,0,1,0,1.5-0.1
			s1-0.2,1.5-0.4c0.5-0.2,0.8-0.5,1.1-0.8c0.3-0.4,0.5-0.8,0.5-1.4c0-0.8-0.3-1.4-0.9-1.9c-0.6-0.4-1.3-0.8-2.2-1.1
			c-0.9-0.3-1.9-0.5-3-0.8c-1.1-0.2-2-0.6-3-1c-0.9-0.4-1.6-1-2.2-1.7s-0.9-1.7-0.8-2.9c0-1,0.3-1.8,0.7-2.4c0.4-0.7,1-1.2,1.7-1.6
			c0.7-0.4,1.5-0.7,2.3-0.9c0.8-0.2,1.7-0.3,2.5-0.2c1.1,0,2.1,0.2,3,0.4s1.7,0.6,2.4,1c0.7,0.5,1.2,1.1,1.6,1.9
			c0.4,0.8,0.6,1.7,0.6,2.9l-3.1-0.1c0-0.6-0.2-1.1-0.4-1.5c-0.3-0.4-0.6-0.7-1-1c-0.4-0.3-0.9-0.4-1.4-0.6s-1-0.2-1.5-0.2
			c-0.5,0-0.9,0-1.4,0.1c-0.5,0.1-0.9,0.2-1.3,0.3s-0.7,0.4-1,0.7c-0.3,0.3-0.4,0.7-0.4,1.2c0,0.5,0.2,1,0.5,1.4
			c0.4,0.4,0.8,0.7,1.4,0.9c0.6,0.3,1.2,0.5,2,0.6c0.7,0.2,1.5,0.4,2.2,0.6c0.8,0.2,1.5,0.4,2.3,0.7c0.7,0.3,1.4,0.6,1.9,1
			c0.6,0.4,1,0.9,1.3,1.6c0.3,0.6,0.5,1.4,0.5,2.3c0,1.1-0.3,2.1-0.8,2.8s-1.1,1.3-1.9,1.8s-1.7,0.7-2.6,0.9c-1,0.2-1.9,0.2-2.9,0.2
			c-1,0-2-0.2-3-0.4c-0.9-0.3-1.8-0.6-2.5-1.2c-0.7-0.5-1.3-1.2-1.7-2c-0.4-0.8-0.6-1.8-0.6-3l3.1,0.1
			C331.7,65.2,331.8,65.8,332.1,66.2z"/>
		<path class="st9" d="M368.8,61.9l-0.4,2.9L358,63.4l0.4-2.9L368.8,61.9z"/>
		<path class="st9" d="M397.1,79.7c-0.6,0.2-1.4,0.2-2.3-0.1c-0.8-0.2-1.4-0.6-1.7-1.1s-0.4-1.3-0.2-2.3c-1.1,0.8-2.2,1.3-3.4,1.5
			s-2.5,0.1-3.7-0.2c-0.8-0.2-1.6-0.5-2.3-0.9c-0.7-0.4-1.3-0.8-1.7-1.4c-0.4-0.5-0.8-1.2-0.9-1.9c-0.2-0.7-0.1-1.6,0.1-2.5
			c0.3-1,0.6-1.9,1.2-2.4c0.5-0.6,1.1-1,1.8-1.3c0.7-0.3,1.4-0.4,2.2-0.5c0.8,0,1.6,0,2.4,0c0.9,0,1.7,0.1,2.5,0.2
			c0.8,0.1,1.5,0.1,2.1,0.1c0.6,0,1.1-0.1,1.5-0.3c0.4-0.2,0.7-0.6,0.8-1.2c0.2-0.7,0.2-1.2,0-1.7c-0.2-0.5-0.4-0.8-0.7-1.2
			c-0.3-0.3-0.7-0.6-1.2-0.7c-0.5-0.2-0.9-0.3-1.4-0.5c-1.3-0.3-2.4-0.3-3.4,0c-1,0.3-1.7,1.1-2.1,2.4l-3-0.7c0.3-1.1,0.8-2,1.4-2.7
			c0.6-0.7,1.3-1.2,2.2-1.5s1.7-0.5,2.7-0.5c1,0,2,0.1,3,0.4c0.8,0.2,1.6,0.5,2.4,0.8c0.8,0.3,1.5,0.7,2,1.3c0.6,0.5,1,1.2,1.2,1.9
			c0.2,0.8,0.2,1.7,0,2.7l-2.3,9.4c-0.2,0.7-0.3,1.2-0.3,1.6c0,0.4,0.2,0.6,0.7,0.7c0.3,0.1,0.6,0.1,1,0.1L397.1,79.7z M394.5,69.1
			c-0.4,0.2-1,0.3-1.6,0.3c-0.6,0-1.3-0.1-2-0.2c-0.7-0.1-1.4-0.1-2.1-0.2s-1.4,0-2,0.1c-0.6,0.1-1.1,0.3-1.6,0.7
			c-0.4,0.4-0.8,0.9-0.9,1.7c-0.1,0.5-0.1,0.9,0,1.3c0.1,0.4,0.3,0.7,0.6,1c0.3,0.3,0.6,0.5,1,0.7c0.4,0.2,0.8,0.4,1.3,0.5
			c1,0.2,1.9,0.3,2.7,0.2s1.4-0.3,2-0.6c0.5-0.3,1-0.7,1.3-1.1c0.3-0.4,0.5-0.9,0.6-1.3L394.5,69.1z"/>
		<path class="st9" d="M410.1,56.6l-7.5,25l-3-0.9l7.5-25L410.1,56.6z"/>
		<path class="st9" d="M421.4,88.1l1.7-15.4l-0.1,0l-8.8,12.7l-3.1-1.2l1-19.8l3.2,1.2l-1.4,16l0.1,0l9-13.1l3.2,1.2l-1.7,15.9
			l0.1,0l9.4-13l3,1.1l-12.3,15.6L421.4,88.1z"/>
		<path class="st9" d="M447.3,99.8c-0.6,0.1-1.4-0.1-2.2-0.5c-0.7-0.4-1.2-0.8-1.4-1.4c-0.2-0.6-0.1-1.4,0.3-2.3
			c-1.2,0.5-2.4,0.8-3.6,0.7c-1.2-0.1-2.4-0.4-3.6-1c-0.8-0.4-1.5-0.8-2.1-1.3c-0.6-0.5-1.1-1.1-1.4-1.7c-0.3-0.6-0.5-1.3-0.5-2
			c0-0.7,0.2-1.5,0.6-2.4c0.5-1,1-1.7,1.6-2.1c0.6-0.5,1.3-0.7,2-0.9c0.7-0.1,1.5-0.1,2.3,0c0.8,0.1,1.6,0.3,2.4,0.5
			c0.8,0.2,1.6,0.5,2.4,0.7c0.7,0.3,1.4,0.4,2,0.6c0.6,0.1,1.1,0.1,1.6,0c0.4-0.1,0.8-0.5,1-1c0.3-0.6,0.4-1.2,0.4-1.6
			c0-0.5-0.2-0.9-0.5-1.3c-0.3-0.4-0.6-0.7-1-1c-0.4-0.3-0.8-0.5-1.3-0.7c-1.2-0.6-2.3-0.8-3.3-0.8c-1,0.1-1.8,0.7-2.5,1.9l-2.8-1.4
			c0.6-1,1.2-1.8,2-2.3c0.7-0.5,1.6-0.9,2.4-1c0.9-0.1,1.8-0.1,2.7,0.1c0.9,0.2,1.9,0.6,2.9,1c0.8,0.4,1.5,0.8,2.2,1.3
			c0.7,0.5,1.3,1,1.7,1.7c0.4,0.6,0.7,1.4,0.8,2.1c0.1,0.8-0.1,1.7-0.6,2.7l-4.2,8.7c-0.3,0.7-0.5,1.2-0.6,1.5
			c-0.1,0.3,0.1,0.6,0.6,0.8c0.2,0.1,0.5,0.2,0.9,0.3L447.3,99.8z M447,88.9c-0.5,0.1-1,0.1-1.7-0.1c-0.6-0.2-1.3-0.3-1.9-0.6
			c-0.7-0.2-1.3-0.4-2-0.7c-0.7-0.2-1.3-0.3-1.9-0.4s-1.2,0.1-1.7,0.3c-0.5,0.2-0.9,0.7-1.3,1.4c-0.2,0.5-0.3,0.9-0.3,1.3
			c0,0.4,0.1,0.8,0.3,1.1c0.2,0.3,0.5,0.7,0.8,0.9c0.4,0.3,0.7,0.5,1.2,0.7c0.9,0.4,1.8,0.7,2.6,0.8c0.8,0.1,1.5,0,2.1-0.2
			c0.6-0.2,1.1-0.4,1.5-0.8s0.7-0.7,0.9-1.1L447,88.9z"/>
		<path class="st9" d="M454.5,107c-0.8,0.6-1.5,1.1-2.1,1.5c-0.6,0.4-1.2,0.6-1.8,0.8c-0.6,0.1-1.1,0.1-1.7,0
			c-0.5-0.1-1.1-0.3-1.7-0.7c-0.3-0.2-0.6-0.4-0.9-0.6c-0.3-0.2-0.6-0.5-0.8-0.8l1.4-2.5c0.2,0.2,0.4,0.5,0.7,0.7
			c0.3,0.2,0.5,0.4,0.7,0.6c0.5,0.3,1.1,0.5,1.6,0.4c0.5-0.1,1-0.3,1.5-0.6l2.7-2.1l2.9-20l3,1.8l-3,16.2l0.1,0L469.5,91l2.8,1.6
			L454.5,107z"/>
		<path class="st9" d="M469.1,108c0,0.6,0.1,1.1,0.3,1.6s0.6,1,1,1.4c0.4,0.4,0.9,0.8,1.4,1.2c0.4,0.3,0.8,0.5,1.3,0.8
			c0.5,0.2,1,0.4,1.5,0.5c0.5,0.1,1,0.1,1.4-0.1s0.8-0.5,1.2-0.9c0.5-0.7,0.5-1.3,0.3-2c-0.3-0.7-0.7-1.4-1.3-2.1
			c-0.6-0.7-1.3-1.5-2.1-2.2c-0.8-0.8-1.4-1.6-2-2.4c-0.5-0.8-0.9-1.7-1-2.6c-0.1-0.9,0.2-1.9,0.8-2.9c0.5-0.8,1.2-1.3,1.9-1.7
			c0.7-0.3,1.5-0.5,2.3-0.5c0.8,0,1.6,0.2,2.4,0.5s1.6,0.7,2.2,1.1c0.9,0.6,1.7,1.2,2.3,1.9c0.6,0.7,1.1,1.4,1.4,2.1
			c0.3,0.8,0.4,1.6,0.4,2.4s-0.4,1.8-1,2.8l-2.6-1.7c0.3-0.5,0.5-1,0.5-1.5c0-0.5-0.1-0.9-0.3-1.4c-0.2-0.4-0.5-0.8-0.8-1.2
			c-0.4-0.4-0.7-0.7-1.2-1c-0.4-0.3-0.8-0.5-1.2-0.7c-0.4-0.2-0.9-0.3-1.3-0.4c-0.4-0.1-0.8,0-1.2,0.1c-0.4,0.1-0.7,0.4-1,0.8
			c-0.3,0.4-0.4,0.9-0.3,1.4c0.1,0.5,0.3,1,0.7,1.5c0.4,0.5,0.8,1,1.3,1.6c0.5,0.5,1,1.1,1.5,1.6c0.5,0.6,1.1,1.2,1.5,1.8
			c0.5,0.6,0.8,1.3,1.1,1.9c0.2,0.7,0.3,1.3,0.3,2c0,0.7-0.3,1.4-0.8,2.2c-0.6,0.9-1.4,1.6-2.2,2c-0.8,0.4-1.7,0.5-2.6,0.5
			c-0.9,0-1.8-0.3-2.7-0.7c-0.9-0.4-1.7-0.9-2.5-1.4c-0.9-0.6-1.6-1.2-2.3-2c-0.7-0.7-1.2-1.5-1.5-2.3c-0.3-0.8-0.4-1.7-0.3-2.6
			c0.1-0.9,0.5-1.9,1.1-2.9l2.6,1.7C469.3,106.9,469.1,107.5,469.1,108z"/>
		<path class="st9" d="M501.9,114l-12,14.6l-2.4-2l12-14.6L501.9,114z M501.6,109.4l2.4-2.9l2.4,2l-2.4,2.9L501.6,109.4z"/>
		<path class="st9" d="M508.3,119.5l-2,2.2l0.1,0c2.5-0.8,4.8-0.3,6.9,1.6c0.9,0.8,1.6,1.7,1.9,2.5c0.4,0.8,0.6,1.6,0.5,2.4
			c0,0.8-0.3,1.6-0.7,2.3c-0.4,0.8-1,1.5-1.7,2.3l-8.4,9.2l-2.3-2.1l8.6-9.4c0.8-0.9,1.2-1.8,1.1-2.7s-0.5-1.8-1.4-2.7
			c-0.7-0.6-1.4-1.1-2.1-1.3c-0.7-0.3-1.4-0.3-2.1-0.3c-0.7,0.1-1.4,0.3-2,0.7s-1.3,0.9-1.8,1.5l-7.2,7.9l-2.3-2.1l12.8-13.9
			L508.3,119.5z"/>
		<path class="st9" d="M523.8,162.6l1.9-1.7l0-0.1c-1.1,0.3-2.2,0.2-3.3-0.4c-1.1-0.5-2-1.3-2.9-2.3c-1-1.1-1.6-2.3-1.9-3.4
			s-0.3-2.3-0.1-3.5c0.2-1.1,0.7-2.2,1.3-3.3c0.7-1.1,1.5-2,2.5-2.9c1-0.9,2.1-1.6,3.2-2.1c1.1-0.5,2.3-0.8,3.4-0.8
			c1.1,0,2.3,0.2,3.4,0.7c1.1,0.5,2.1,1.3,3.1,2.4c0.3,0.4,0.6,0.8,0.9,1.3c0.3,0.5,0.5,1,0.7,1.6s0.3,1.2,0.3,1.8
			c0,0.6,0,1.2-0.2,1.9l0,0.1l7.4-6.3l2,2.4l-19.8,17L523.8,162.6z M521.6,149.7c-0.5,0.7-0.8,1.5-1,2.3c-0.2,0.8-0.2,1.6,0,2.4
			c0.2,0.8,0.6,1.6,1.3,2.4c0.7,0.8,1.4,1.3,2.2,1.6c0.8,0.3,1.6,0.4,2.4,0.3c0.8-0.1,1.6-0.3,2.4-0.7c0.8-0.4,1.5-0.9,2.2-1.5
			c0.7-0.6,1.3-1.3,1.8-2c0.5-0.7,0.9-1.5,1.1-2.3c0.2-0.8,0.2-1.6,0-2.4s-0.6-1.7-1.3-2.5c-0.7-0.8-1.4-1.3-2.2-1.6
			c-0.8-0.3-1.6-0.4-2.4-0.3c-0.8,0.1-1.6,0.4-2.4,0.8c-0.8,0.4-1.5,0.9-2.2,1.5C522.6,148.4,522.1,149,521.6,149.7z"/>
		<path class="st9" d="M545.4,159.6l-15,11.5l-1.9-2.5l15-11.5L545.4,159.6z M546.3,155.1l3-2.3l1.9,2.5l-3,2.3L546.3,155.1z"/>
		<path class="st9" d="M538,174.2c-0.2,0.5-0.3,1-0.3,1.6c0,0.6,0.2,1.1,0.4,1.7c0.2,0.6,0.5,1.1,0.9,1.6c0.3,0.4,0.6,0.8,1,1.2
			c0.4,0.4,0.8,0.7,1.2,1s0.9,0.4,1.3,0.4c0.5,0,1-0.1,1.4-0.5c0.7-0.5,1-1.1,1-1.8c0-0.7-0.2-1.6-0.5-2.5c-0.3-0.9-0.7-1.8-1.1-2.8
			c-0.4-1-0.8-2-1-3c-0.2-1-0.2-1.9,0-2.8c0.2-0.9,0.8-1.7,1.8-2.4c0.8-0.5,1.6-0.8,2.4-0.9c0.8,0,1.6,0.1,2.3,0.4
			c0.7,0.3,1.4,0.8,2.1,1.3c0.6,0.6,1.2,1.2,1.7,1.9c0.6,0.9,1.1,1.7,1.5,2.6c0.4,0.8,0.6,1.7,0.6,2.5c0,0.8-0.2,1.6-0.6,2.4
			c-0.4,0.8-1,1.5-2,2.2l-1.8-2.6c0.5-0.4,0.8-0.8,1-1.3c0.2-0.4,0.3-0.9,0.2-1.4c0-0.5-0.1-1-0.3-1.4c-0.2-0.5-0.4-0.9-0.7-1.3
			c-0.3-0.4-0.6-0.7-0.9-1.1c-0.3-0.4-0.7-0.6-1.1-0.9c-0.4-0.2-0.8-0.3-1.1-0.4c-0.4,0-0.8,0.1-1.2,0.4c-0.4,0.3-0.7,0.7-0.8,1.2
			c-0.1,0.5,0,1.1,0.1,1.7c0.1,0.6,0.4,1.3,0.6,2c0.3,0.7,0.6,1.4,0.8,2.1c0.3,0.7,0.6,1.5,0.8,2.2c0.2,0.8,0.3,1.5,0.3,2.2
			c0,0.7-0.2,1.4-0.5,2c-0.3,0.6-0.8,1.2-1.6,1.7c-0.9,0.6-1.9,1-2.8,1c-0.9,0-1.7-0.1-2.6-0.5c-0.8-0.4-1.6-0.9-2.3-1.6
			c-0.7-0.7-1.3-1.4-1.9-2.2c-0.6-0.9-1.1-1.8-1.4-2.7c-0.4-0.9-0.5-1.8-0.5-2.7c0-0.9,0.2-1.7,0.6-2.6c0.4-0.8,1.1-1.6,2-2.3
			l1.8,2.6C538.6,173.3,538.2,173.7,538,174.2z"/>
		<path class="st9" d="M562.4,191.3c0.2-1-0.1-2.1-0.7-3.2c-0.6-1-1.2-1.7-2-2.1c-0.7-0.4-1.5-0.7-2.3-0.7c-0.8,0-1.7,0.1-2.5,0.4
			c-0.9,0.3-1.7,0.7-2.5,1.1c-0.8,0.4-1.4,1-2.1,1.6c-0.6,0.6-1.1,1.2-1.4,2c-0.3,0.7-0.5,1.5-0.5,2.3c0,0.8,0.3,1.6,0.8,2.5
			c0.8,1.3,1.7,2.2,2.9,2.5c1.1,0.3,2.4,0.2,3.7-0.3l1.6,2.7c-2.2,0.9-4.2,1-6,0.5c-1.8-0.6-3.3-1.9-4.5-4c-0.7-1.2-1.2-2.5-1.3-3.6
			c-0.2-1.2-0.1-2.3,0.3-3.4c0.4-1.1,1-2.1,1.8-3c0.8-0.9,1.9-1.7,3.1-2.5c1.2-0.7,2.5-1.2,3.7-1.5c1.2-0.3,2.5-0.4,3.6-0.2
			c1.2,0.2,2.3,0.6,3.3,1.3c1,0.7,1.9,1.7,2.7,3c0.5,0.9,0.9,1.9,1.2,2.8c0.3,0.9,0.3,1.9,0.2,2.7c-0.1,0.9-0.4,1.7-0.9,2.6
			s-1.2,1.6-2.1,2.2l-1.6-2.8C561.6,193.2,562.2,192.3,562.4,191.3z"/>
		<path class="st9" d="M564.5,199.8c1.3-0.2,2.5-0.1,3.6,0.2c1.1,0.3,2.2,0.9,3.2,1.7c1,0.8,1.8,1.9,2.4,3.2c0.7,1.4,1,2.7,1,3.9
			c0,1.2-0.2,2.4-0.6,3.5c-0.5,1.1-1.1,2.1-2.1,3c-0.9,0.9-2,1.6-3.2,2.2c-1.2,0.6-2.5,1-3.7,1.2c-1.2,0.2-2.4,0.1-3.6-0.2
			c-1.1-0.3-2.2-0.9-3.1-1.7c-0.9-0.8-1.7-1.9-2.4-3.2c-0.6-1.3-1-2.6-1-3.9c-0.1-1.2,0.2-2.4,0.6-3.5c0.5-1.1,1.1-2.1,2-2.9
			s2-1.6,3.2-2.2C562,200.4,563.3,200,564.5,199.8z M559.7,205.7c-0.7,0.7-1.2,1.4-1.5,2.1c-0.3,0.7-0.4,1.5-0.4,2.3
			c0,0.8,0.2,1.5,0.6,2.3c0.4,0.7,0.8,1.3,1.4,1.8s1.3,0.9,2.1,1.1c0.8,0.2,1.6,0.3,2.6,0.2c0.9-0.1,1.9-0.4,2.9-0.9
			s1.9-1.1,2.5-1.7c0.7-0.7,1.2-1.4,1.5-2.1c0.3-0.7,0.5-1.5,0.4-2.3s-0.2-1.5-0.6-2.3c-0.4-0.7-0.8-1.3-1.4-1.8
			c-0.6-0.5-1.3-0.9-2.1-1.1c-0.8-0.2-1.6-0.3-2.6-0.2c-0.9,0.1-1.9,0.4-2.9,0.9C561.2,204.5,560.3,205,559.7,205.7z"/>
		<path class="st9" d="M563.4,229.4l15-13.5l1.3,3.2L567,229.9l0,0.1l16.6-1l1.2,3l-20.1,0.5L563.4,229.4z"/>
		<path class="st9" d="M573.1,253.7c-1.4-1-2.5-2.6-3.1-4.6c-0.5-1.4-0.6-2.8-0.5-4c0.1-1.2,0.5-2.3,1.1-3.3c0.6-1,1.4-1.8,2.5-2.6
			c1.1-0.7,2.3-1.3,3.6-1.8c1.4-0.4,2.7-0.6,4-0.5c1.3,0.1,2.4,0.3,3.5,0.8c1.1,0.5,2,1.2,2.8,2.1c0.8,0.9,1.4,2,1.8,3.2
			c0.5,1.6,0.6,3,0.3,4.3c-0.3,1.3-0.9,2.4-1.7,3.3c-0.8,1-1.8,1.8-2.9,2.4c-1.1,0.6-2.3,1.1-3.4,1.4l-4.2-13.5
			c-0.8,0.2-1.5,0.6-2.2,1c-0.6,0.4-1.2,1-1.6,1.6c-0.4,0.6-0.7,1.4-0.8,2.2c-0.1,0.8,0,1.7,0.3,2.7c0.4,1.3,1,2.2,1.8,2.8
			c0.8,0.6,1.9,0.9,3.1,0.8l0.9,2.9C576.3,255.1,574.5,254.7,573.1,253.7z M584.5,249.3c0.5-0.5,1-1,1.3-1.6
			c0.3-0.6,0.5-1.2,0.6-1.9c0.1-0.7,0-1.4-0.2-2.2c-0.2-0.8-0.6-1.4-1-2c-0.5-0.5-1-0.9-1.6-1.2s-1.3-0.5-1.9-0.5
			c-0.7-0.1-1.4,0-2.1,0.2l3.2,10.4C583.3,250.2,583.9,249.8,584.5,249.3z"/>
		<path class="st9" d="M592.5,257.9l-3.9,1l0,0.1c1.7,0.4,3,1,4,1.9c1,0.9,1.6,2.2,2,3.8l-3.2,0.8c-0.3-1.2-0.7-2.2-1.3-3
			c-0.5-0.8-1.2-1.3-2-1.7s-1.6-0.6-2.6-0.6c-1,0-2,0.1-3.2,0.4l-8.2,2l-0.7-3l18.4-4.5L592.5,257.9z"/>
		<path class="st9" d="M575.1,278.9c-1-0.2-1.8-0.4-2.5-0.6s-1.3-0.5-1.7-0.9c-0.5-0.3-0.8-0.8-1.1-1.2c-0.3-0.5-0.5-1.1-0.6-1.7
			c-0.1-0.4-0.1-0.7-0.1-1.1c0-0.4,0-0.7,0.1-1.1l2.8-0.5c-0.1,0.3-0.1,0.6-0.1,1c0,0.4,0,0.7,0,0.9c0.1,0.6,0.4,1.1,0.7,1.5
			s0.9,0.6,1.5,0.7l3.4,0.7l17.1-10.8l0.6,3.5l-14.2,8.2l0,0.1l16.2,2.4l0.6,3.2L575.1,278.9z"/>
	</g>
	<g>
		<path class="st9" d="M186.2,528.6l-1.4,1.7l-7.3-6l-15.9,19.3l-2-1.6l15.9-19.3l-7.3-6l1.4-1.7L186.2,528.6z"/>
		<path class="st9" d="M182.1,534.7l-2.7,3.7l0.1,0c1.4-0.9,2.9-1.4,4.5-1.3s3,0.7,4.4,1.8l-1.4,1.9c-0.8-0.7-1.7-1.2-2.7-1.4
			c-0.9-0.3-1.8-0.3-2.7-0.2c-0.9,0.1-1.7,0.4-2.6,0.9c-0.8,0.5-1.5,1.2-2.1,2l-6.2,8.4l-1.9-1.4l11.7-15.8L182.1,534.7z"/>
		<path class="st9" d="M190.7,564.3l1.9-3l-0.1,0c-1.2,0.8-2.6,1.1-4,1.1s-2.7-0.5-3.9-1.3c-1-0.7-1.8-1.4-2.4-2.1
			c-0.6-0.8-0.9-1.6-1-2.4c-0.1-0.8,0-1.7,0.2-2.6c0.3-0.9,0.7-1.9,1.4-2.8l6.9-10.7l2,1.3l-6.9,10.8c-0.9,1.5-1.3,2.9-1.1,4.1
			c0.2,1.2,1,2.3,2.6,3.3c0.9,0.6,1.7,0.9,2.6,0.9c0.9,0,1.7-0.1,2.5-0.5c0.8-0.4,1.6-0.9,2.3-1.6c0.7-0.7,1.3-1.4,1.9-2.3l5.6-8.7
			l2,1.3l-10.6,16.5L190.7,564.3z"/>
		<path class="st9" d="M215.1,559.8c0-0.6-0.1-1.2-0.4-1.7c-0.2-0.5-0.6-1-1.1-1.5c-0.5-0.4-1-0.8-1.6-1.1c-0.5-0.3-1-0.5-1.5-0.6
			c-0.5-0.2-1.1-0.2-1.6-0.2c-0.5,0-1,0.2-1.5,0.4c-0.5,0.2-0.8,0.7-1.1,1.2c-0.3,0.5-0.3,0.9-0.3,1.4c0.1,0.5,0.2,0.9,0.5,1.3
			c0.2,0.4,0.5,0.8,0.9,1.2c0.3,0.4,0.7,0.7,1,1l2.5,2.1c0.6,0.4,1.1,0.9,1.5,1.4c0.5,0.6,0.8,1.1,1.1,1.8s0.4,1.3,0.4,2
			c0,0.7-0.2,1.5-0.6,2.2c-0.5,0.9-1.1,1.6-1.9,2.1c-0.8,0.4-1.6,0.7-2.5,0.7c-0.9,0.1-1.8,0-2.7-0.3c-0.9-0.3-1.8-0.6-2.6-1
			c-2-1.1-3.4-2.5-4.2-4.1c-0.8-1.6-0.6-3.6,0.3-5.8l2.1,1.1c-0.7,1.5-0.7,2.8-0.2,4.1c0.6,1.2,1.5,2.2,3,3c0.5,0.3,1.1,0.5,1.7,0.7
			c0.6,0.2,1.2,0.3,1.8,0.2s1.2-0.2,1.7-0.4c0.5-0.3,0.9-0.7,1.3-1.3c0.3-0.5,0.4-1,0.4-1.5c0-0.5-0.2-0.9-0.4-1.3
			c-0.2-0.4-0.5-0.8-0.9-1.2c-0.4-0.4-0.8-0.8-1.2-1.1l-2.4-2.1c-0.6-0.5-1.1-1.1-1.6-1.6c-0.5-0.5-0.8-1.1-1.1-1.7
			c-0.2-0.6-0.4-1.2-0.3-1.8c0-0.6,0.2-1.3,0.6-2.1c0.5-0.9,1.1-1.5,1.8-1.9c0.7-0.4,1.5-0.6,2.3-0.7c0.8,0,1.7,0,2.5,0.3
			c0.9,0.2,1.7,0.6,2.4,1c0.9,0.5,1.6,1,2.3,1.6c0.6,0.6,1.1,1.3,1.4,2.1c0.3,0.8,0.5,1.6,0.4,2.5c0,0.9-0.3,1.8-0.7,2.8l-2.1-1.1
			C214.9,561,215.1,560.4,215.1,559.8z"/>
		<path class="st9" d="M230.1,562.7l-0.8,1.8l-3.6-1.7l-5.5,12c-0.3,0.7-0.5,1.3-0.5,1.8s0.4,0.9,1.2,1.3c0.6,0.3,1.3,0.5,1.9,0.8
			l-0.8,1.8c-0.3-0.1-0.7-0.3-1-0.4c-0.3-0.1-0.7-0.3-1-0.4c-1.5-0.7-2.3-1.4-2.7-2.2s-0.1-2,0.6-3.5l5.6-12.2l-3.1-1.4l0.8-1.8
			l3.1,1.4l2.5-5.4l2.2,1l-2.5,5.4L230.1,562.7z"/>
		<path class="st9" d="M240.2,575.5l9,3.1l-0.7,2.1l-9-3.1L240.2,575.5z"/>
		<path class="st9" d="M270.3,568.5l-3.5,16.5c-0.3,1.5-0.4,2.9-0.3,4c0.1,1.2,0.4,2.1,1,3c0.5,0.8,1.2,1.5,2.1,2
			c0.9,0.5,2,0.9,3.2,1.2c1.2,0.3,2.4,0.3,3.4,0.2c1-0.1,2-0.4,2.8-1c0.8-0.5,1.5-1.3,2.1-2.3c0.6-1,1-2.3,1.4-3.8l3.5-16.5l2.5,0.5
			l-3.6,17c-0.3,1.4-0.8,2.6-1.4,3.8c-0.6,1.1-1.5,2.1-2.5,2.8c-1,0.7-2.3,1.2-3.7,1.5c-1.4,0.3-3.1,0.2-4.9-0.2
			c-1.8-0.4-3.3-1-4.5-1.8c-1.2-0.8-2.1-1.8-2.7-2.9c-0.6-1.1-1-2.3-1.1-3.6c-0.1-1.3,0-2.6,0.3-4l3.6-17L270.3,568.5z"/>
		<path class="st9" d="M302.1,585.5c-0.2-0.6-0.5-1.1-1-1.5c-0.4-0.4-0.9-0.7-1.5-1c-0.6-0.2-1.2-0.4-1.9-0.5
			c-0.5-0.1-1.1-0.1-1.6,0c-0.6,0-1.1,0.2-1.6,0.4c-0.5,0.2-0.9,0.5-1.2,0.9c-0.3,0.4-0.5,0.9-0.6,1.5c-0.1,0.5,0,1,0.2,1.4
			s0.5,0.7,0.9,1c0.4,0.3,0.8,0.6,1.2,0.8c0.5,0.2,0.9,0.4,1.3,0.6l3.1,1.1c0.7,0.2,1.3,0.4,2,0.8c0.6,0.3,1.2,0.8,1.6,1.3
			s0.8,1.1,1.1,1.7c0.2,0.7,0.3,1.4,0.2,2.3c-0.1,1.1-0.5,1.9-1,2.6c-0.6,0.7-1.3,1.2-2.1,1.6c-0.8,0.4-1.7,0.6-2.6,0.7
			c-1,0.1-1.9,0.1-2.8,0c-2.3-0.3-4.1-1-5.4-2.3c-1.3-1.3-1.9-3.1-1.8-5.5l2.4,0.3c-0.1,1.6,0.3,2.9,1.3,3.9c1,0.9,2.3,1.5,3.8,1.7
			c0.6,0.1,1.2,0.1,1.8,0c0.6-0.1,1.2-0.2,1.8-0.4c0.6-0.2,1-0.6,1.4-1c0.4-0.4,0.6-1,0.7-1.7c0.1-0.6,0-1.1-0.2-1.5
			c-0.2-0.4-0.5-0.8-0.8-1.1c-0.4-0.3-0.8-0.6-1.3-0.8c-0.5-0.2-1-0.5-1.5-0.6l-3-1.1c-0.8-0.3-1.4-0.6-2.1-1
			c-0.6-0.3-1.2-0.7-1.6-1.2c-0.4-0.5-0.8-1-1-1.6c-0.2-0.6-0.3-1.3-0.2-2.1c0.1-1,0.4-1.8,1-2.5c0.5-0.7,1.2-1.1,1.9-1.5
			c0.8-0.3,1.6-0.6,2.5-0.7c0.9-0.1,1.8-0.1,2.6,0c1,0.1,1.9,0.4,2.7,0.7c0.8,0.4,1.5,0.8,2.1,1.4c0.6,0.6,1,1.3,1.3,2.2
			c0.3,0.8,0.4,1.8,0.3,2.8l-2.4-0.3C302.4,586.8,302.3,586.1,302.1,585.5z"/>
		<path class="st9" d="M310.5,595.6c0.2,0.9,0.5,1.8,1,2.5c0.5,0.8,1.1,1.4,1.9,1.9c0.8,0.5,1.8,0.8,2.9,0.9
			c1.8,0.1,3.1-0.3,4.2-1.2c1-0.9,1.8-2.1,2.2-3.6l2.4,0.1c-0.6,2.2-1.6,3.9-3,5c-1.4,1.2-3.4,1.7-5.8,1.6c-1.5-0.1-2.9-0.4-4-1
			c-1.1-0.6-2-1.4-2.7-2.4c-0.7-1-1.1-2.1-1.4-3.4c-0.3-1.3-0.4-2.6-0.3-4c0.1-1.3,0.3-2.6,0.7-3.8c0.4-1.2,1-2.3,1.7-3.3
			c0.8-0.9,1.7-1.7,2.9-2.2c1.2-0.5,2.5-0.8,4.1-0.7c1.6,0.1,2.9,0.4,4,1.1c1.1,0.7,2,1.6,2.6,2.6c0.7,1.1,1.1,2.3,1.3,3.6
			c0.2,1.3,0.3,2.7,0.2,4.1l-15.1-0.7C310.2,593.8,310.3,594.7,310.5,595.6z M322.7,588.8c-0.3-0.8-0.6-1.6-1.1-2.3
			c-0.5-0.7-1.1-1.2-1.9-1.6c-0.7-0.4-1.6-0.7-2.6-0.7c-1,0-1.9,0.1-2.7,0.5s-1.4,0.9-2,1.5c-0.6,0.6-1,1.4-1.4,2.2
			c-0.4,0.8-0.6,1.7-0.7,2.6l12.7,0.6C323.1,590.6,323,589.7,322.7,588.8z"/>
		<path class="st9" d="M331.1,583l0.1,4.6l0.1,0c0.6-1.6,1.5-2.9,2.8-3.7c1.3-0.9,2.8-1.3,4.6-1.3l0,2.4c-1.1,0-2.1,0.1-3,0.5
			c-0.9,0.4-1.6,0.9-2.3,1.5c-0.6,0.6-1.1,1.4-1.5,2.3c-0.3,0.9-0.5,1.8-0.5,2.9l0.2,10.5l-2.4,0l-0.4-19.6L331.1,583z"/>
		<path class="st9" d="M352.3,585.7c-0.3-0.5-0.7-0.9-1.2-1.3c-0.5-0.3-1.1-0.5-1.7-0.6c-0.6-0.1-1.3-0.1-2-0.1
			c-0.5,0-1.1,0.1-1.6,0.3c-0.5,0.2-1,0.4-1.5,0.7c-0.4,0.3-0.8,0.7-1,1.1c-0.2,0.5-0.3,1-0.3,1.6c0,0.5,0.2,1,0.5,1.3
			c0.3,0.3,0.7,0.6,1.1,0.8c0.4,0.2,0.9,0.4,1.4,0.5c0.5,0.1,0.9,0.2,1.4,0.3l3.2,0.5c0.7,0,1.4,0.2,2.1,0.4
			c0.7,0.2,1.3,0.5,1.9,0.9c0.6,0.4,1,0.9,1.4,1.5c0.4,0.6,0.6,1.3,0.7,2.2c0.1,1.1-0.1,2-0.5,2.8c-0.4,0.8-1,1.4-1.7,2
			c-0.7,0.5-1.5,0.9-2.4,1.2c-0.9,0.3-1.8,0.5-2.7,0.5c-2.3,0.2-4.2-0.2-5.7-1.2c-1.5-1-2.5-2.7-2.9-5l2.4-0.2
			c0.2,1.6,0.9,2.8,2.1,3.5c1.1,0.7,2.5,1,4.1,0.9c0.6,0,1.2-0.2,1.8-0.3c0.6-0.2,1.2-0.4,1.7-0.8s0.9-0.8,1.2-1.3
			c0.3-0.5,0.4-1.1,0.4-1.8c0-0.6-0.2-1.1-0.5-1.4c-0.3-0.4-0.6-0.7-1-0.9c-0.4-0.2-0.9-0.4-1.4-0.6c-0.5-0.1-1.1-0.2-1.6-0.3
			l-3.1-0.4c-0.8-0.1-1.5-0.3-2.2-0.5c-0.7-0.2-1.3-0.5-1.8-0.8c-0.5-0.4-1-0.8-1.3-1.3c-0.3-0.5-0.5-1.2-0.6-2.1
			c-0.1-1,0.1-1.9,0.5-2.6c0.4-0.7,0.9-1.4,1.6-1.8s1.4-0.9,2.3-1.1c0.9-0.3,1.7-0.4,2.6-0.5c1-0.1,1.9,0,2.8,0.2
			c0.9,0.2,1.6,0.5,2.3,1c0.7,0.5,1.3,1.1,1.7,1.8c0.4,0.8,0.7,1.7,0.9,2.7l-2.4,0.2C352.8,586.8,352.6,586.2,352.3,585.7z"/>
		<path class="st9" d="M370.6,587.5l9.3-1.8l0.4,2.2l-9.3,1.8L370.6,587.5z"/>
		<path class="st9" d="M399.9,564.3c4-1.2,7.3-1,10,0.4c2.7,1.5,4.7,4.4,6.1,8.7c1.4,4.3,1.4,7.8,0.1,10.6c-1.3,2.8-3.9,4.8-7.8,6.2
			l-8.9,2.9l-8.4-25.9L399.9,564.3z M406.4,588.4c1.9-0.6,3.4-1.3,4.6-2.1c1.2-0.8,2.1-1.8,2.7-3c0.6-1.1,0.9-2.5,0.8-4
			c0-1.5-0.4-3.2-1-5.2c-0.6-1.9-1.4-3.5-2.2-4.8s-1.9-2.2-3-2.8c-1.2-0.6-2.5-0.9-3.9-0.8c-1.5,0-3.1,0.4-5,1l-5.3,1.7l7,21.7
			L406.4,588.4z"/>
		<path class="st9" d="M424.2,577.6c0.6,0.8,1.3,1.4,2.1,1.8c0.8,0.5,1.6,0.8,2.6,0.9s1.9,0,3-0.5c1.6-0.7,2.7-1.7,3.2-2.9
			c0.5-1.2,0.7-2.6,0.4-4.2l2.2-0.9c0.4,2.3,0.2,4.2-0.5,5.9c-0.8,1.7-2.3,3-4.6,4c-1.4,0.6-2.8,0.9-4,0.8c-1.3-0.1-2.4-0.4-3.4-1
			c-1-0.6-1.9-1.4-2.8-2.4c-0.8-1-1.5-2.2-2-3.5c-0.5-1.2-0.9-2.4-1-3.7c-0.2-1.3-0.1-2.5,0.1-3.7c0.3-1.2,0.8-2.3,1.6-3.3
			c0.8-1,1.9-1.8,3.3-2.4c1.4-0.6,2.8-0.9,4.1-0.7c1.3,0.1,2.4,0.5,3.5,1.2s2,1.6,2.8,2.7c0.8,1.1,1.5,2.3,1.9,3.6l-13.9,6
			C423.1,576.1,423.6,576.8,424.2,577.6z M432.2,566.2c-0.6-0.7-1.3-1.2-2-1.6c-0.7-0.4-1.5-0.6-2.4-0.7c-0.9-0.1-1.7,0.1-2.6,0.5
			c-0.9,0.4-1.6,0.9-2.2,1.6c-0.5,0.7-0.9,1.4-1.2,2.2s-0.3,1.7-0.3,2.6c0,0.9,0.2,1.8,0.5,2.6l11.7-5
			C433.3,567.6,432.8,566.8,432.2,566.2z"/>
		<path class="st9" d="M434.1,550.4l12.1,24.4l-2.1,1.1l-12.1-24.4L434.1,550.4z"/>
		<path class="st9" d="M440,547.3l1.8,3.4l-2.1,1.1l-1.8-3.4L440,547.3z M443.6,553.9l9.2,17.3l-2.1,1.1l-9.2-17.3L443.6,553.9z"/>
		<path class="st9" d="M447.9,551.6l14.1,11.6l0.1,0l-3.6-17.9l2.1-1.3l3.8,20.6l-2.2,1.3l-16.6-13L447.9,551.6z"/>
		<path class="st9" d="M471.4,552.5c0.7,0.6,1.5,1.1,2.4,1.4c0.9,0.3,1.8,0.4,2.7,0.3c0.9-0.1,1.9-0.4,2.8-1.1
			c1.4-1,2.3-2.2,2.6-3.5c0.3-1.3,0.1-2.7-0.4-4.2l2-1.4c0.9,2.1,1.1,4.1,0.7,5.8c-0.4,1.8-1.6,3.4-3.7,4.8
			c-1.3,0.9-2.5,1.4-3.8,1.7c-1.2,0.2-2.4,0.1-3.6-0.2c-1.1-0.4-2.2-1-3.2-1.8c-1-0.8-1.9-1.8-2.7-3c-0.7-1.1-1.3-2.2-1.8-3.4
			c-0.4-1.2-0.6-2.4-0.6-3.6s0.3-2.4,0.9-3.5c0.6-1.1,1.5-2.2,2.8-3c1.3-0.9,2.6-1.4,3.8-1.6c1.3-0.1,2.5,0,3.7,0.5s2.3,1.1,3.3,2
			c1,0.9,1.9,1.9,2.7,3.1l-12.3,8.7C470.1,551.2,470.7,551.9,471.4,552.5z M476.9,539.7c-0.7-0.5-1.5-0.9-2.3-1.1
			c-0.8-0.2-1.6-0.3-2.5-0.2c-0.8,0.1-1.7,0.5-2.5,1c-0.8,0.6-1.4,1.2-1.8,2c-0.4,0.8-0.6,1.6-0.7,2.4c-0.1,0.8,0,1.7,0.3,2.6
			c0.2,0.9,0.6,1.7,1,2.5l10.4-7.3C478.3,540.8,477.6,540.2,476.9,539.7z"/>
		<path class="st9" d="M479.9,529.9l2.9,3.6l0.1,0c-0.5-1.6-0.6-3.2-0.1-4.7c0.5-1.5,1.4-2.7,2.8-3.8l1.5,1.9
			c-0.9,0.6-1.6,1.4-2,2.2c-0.5,0.8-0.8,1.7-0.9,2.6c-0.1,0.9,0,1.8,0.3,2.7c0.3,0.9,0.7,1.8,1.4,2.6l6.6,8.1l-1.9,1.5l-12.4-15.3
			L479.9,529.9z"/>
		<path class="st9" d="M487.6,523.6l16.1,8l-6.8-16.5l1.8-1.6l8.9,22.5c0.3,0.9,0.5,1.6,0.7,2.2c0.1,0.6,0.2,1.2,0.1,1.6
			c-0.1,0.5-0.2,0.9-0.5,1.4c-0.3,0.4-0.7,0.9-1.2,1.4c-0.4,0.3-0.7,0.5-0.9,0.7c-0.2,0.2-0.4,0.3-0.6,0.4l-1.4-1.5
			c0.2-0.2,0.5-0.3,0.7-0.5s0.4-0.3,0.6-0.5c0.4-0.4,0.7-0.7,0.8-1.1c0.2-0.3,0.2-0.7,0.2-1.1c0-0.4-0.1-0.8-0.2-1.2
			c-0.1-0.4-0.3-0.8-0.4-1.3l-0.9-2.2l-19-9.2L487.6,523.6z"/>
	</g>
</g>
</svg>
